<svg id="Capa_1" data-name="Capa 1" xmlns="http://www.w3.org/2000/svg" viewBox="0 0 250 250"><defs><style>.cls-1{fill:#c5fcd4;}.cls-2{fill:#46c767;}</style></defs><title>3d-logo-design</title><circle class="cls-1" cx="111.8" cy="133.46" r="111.8"/><path class="cls-2" d="M164.48,147.23h-5.77a3.85,3.85,0,0,0-3.85,3.84v17.39a3.86,3.86,0,0,0,3.85,3.85h5.77a9.64,9.64,0,0,0,9.63-9.62v-5.84a9.63,9.63,0,0,0-9.63-9.62Zm3.93,15.46a3.93,3.93,0,0,1-3.93,3.92h-3.92V152.93h3.92a3.93,3.93,0,0,1,3.93,3.92Z"/><path class="cls-2" d="M145.17,147.23h-9.54a2.85,2.85,0,0,0,0,5.7h8.87v4h-8.87a2.85,2.85,0,0,0,0,5.7h8.87v4h-8.87a2.85,2.85,0,1,0,0,5.7h9.54a5,5,0,0,0,5-5v-15a5,5,0,0,0-5-5Z"/><path class="cls-2" d="M249.83,166.11,245,149.26a2.85,2.85,0,1,0-5.48,1.57l3.38,11.88-34.05-19c0-.41,0-21.63,0-21.63a2.85,2.85,0,1,0-5.7,0s0,21.79,0,22.15c-.11.09-14,7.83-14,7.83a36.64,36.64,0,0,0-32.89-28.79v-7.75l46.9-26.12V109a2.85,2.85,0,1,0,5.7,0V84a4.2,4.2,0,0,0-2.24-3.51l-50.36-28V13.75L165,22.49a2.85,2.85,0,1,0,4-4L156.69,6.08a4.63,4.63,0,0,0-3.25-1.35,4.57,4.57,0,0,0-3.24,1.34L137.83,18.46a2.85,2.85,0,0,0,4,4l8.73-8.74v38.7L131,63.35a2.86,2.86,0,0,0,2.78,5l19.67-11L201.23,84l-47.79,26.61L105.65,84l18.14-10.17a2.85,2.85,0,1,0-2.79-5L100.24,80.49A4,4,0,0,0,98,84h0s0,59.31,0,59.72l-34,19,3.38-11.88a2.85,2.85,0,1,0-5.48-1.56l-4.79,16.86a4.53,4.53,0,0,0,.4,3.46,4.6,4.6,0,0,0,2.75,2.18L77,176.56a2.69,2.69,0,0,0,.79.11,2.85,2.85,0,0,0,.78-5.59l-11.89-3.39,33.73-18.79c.36.27,16.47,9.28,16.47,9.28q0,.8,0,1.59a36.55,36.55,0,1,0,73.1,0q0-.79,0-1.59s16.12-9,16.48-9.28l33.73,18.79-11.89,3.39a2.85,2.85,0,0,0,.78,5.59,2.69,2.69,0,0,0,.79-.11l16.84-4.8a4.6,4.6,0,0,0,3.14-5.65ZM104.47,144.72a5.91,5.91,0,0,1-.74-.46c0-.35,0-54.83,0-54.83l46.89,26.12v7.75a36.64,36.64,0,0,0-32.89,28.79Zm49,45.92a30.88,30.88,0,1,1,30.85-30.87A30.9,30.9,0,0,1,153.44,190.64Z"/></svg>