<svg id="Capa_1" data-name="Capa 1" xmlns="http://www.w3.org/2000/svg" viewBox="0 0 250 250"><defs><style>.cls-1{fill:#d9f3ff;}.cls-2{fill:#189fea;}</style></defs><title>animated-logo-design</title><circle class="cls-1" cx="111.8" cy="133.3" r="111.8"/><path class="cls-2" d="M94.59,118.47h6v35.86h-6Z"/><path class="cls-2" d="M82.63,124.45h6v17.93h-6Z"/><path class="cls-2" d="M97.58,10.88H250v-6H97.58A38.91,38.91,0,0,0,58.72,43.75V166.29a29.93,29.93,0,0,0,29.89,29.89H235.06V166.29H214.14v-9H250v-6H169.66l3-6H250v-6H172.29l-2.24-3,2.24-3H250v-6H172.65l-3-6H250v-6H214.14v-9h20.92V76.63H220.11V34.79H250v-6H214.14V76.63H196.2V28.81H130.45V76.63H112.52V28.81h-9A35.89,35.89,0,0,0,68.26,58.54,32.81,32.81,0,0,1,97.58,10.88ZM64.7,94.48a29.82,29.82,0,0,0,23.91,12H118.5v59.77H97.58A32.92,32.92,0,0,1,64.7,133.41Zm143.46,62.84v9H148.38v-18.8L164,157.32ZM142,136.4l9.34-5.9v11.8Zm25.27,6.28L163.63,150l-6.28-4V126.73l6.28-4,3.67,7.37-4.72,6.27Zm40.86-27.2H164l-15.58,9.84v-18.8h59.78ZM136.43,34.79h53.8V76.63h-53.8ZM73.67,64.67a29.91,29.91,0,0,1,29.88-29.88h3V76.63h-9A32.8,32.8,0,0,1,73.67,66.25ZM97.58,82.61h131.5v17.93H142.41v28.55l-11.58,7.31,11.58,7.31v28.56h86.67V190.2H88.61A23.94,23.94,0,0,1,64.7,166.29V154a38.83,38.83,0,0,0,32.88,18.24h26.9V100.54H88.61A23.94,23.94,0,0,1,64.7,76.63V64.37A38.83,38.83,0,0,0,97.58,82.61Z"/></svg>