<svg id="Capa_1" data-name="Capa 1" xmlns="http://www.w3.org/2000/svg" viewBox="0 0 250 250"><defs><style>.cls-1{fill:#f9c5eb;}.cls-2{fill:#c64769;}</style></defs><title>custom-illustration</title><circle class="cls-1" cx="111.8" cy="133.55" r="111.8"/><path class="cls-2" d="M246.34,159.78H239v-117a11.29,11.29,0,0,0-.46-3.16l5.79-5.79a11,11,0,0,0,0-15.54h0L234,7.87a11,11,0,0,0-15.55,0h0L194.77,31.53H52.33a11.22,11.22,0,0,0-11.2,11.2V159.78H33.8a3.66,3.66,0,0,0-3.66,3.67v17.4a15.58,15.58,0,0,0,15.57,15.57H234.43A15.58,15.58,0,0,0,250,180.85v-17.4A3.66,3.66,0,0,0,246.34,159.78ZM125.41,112.62A27.48,27.48,0,0,0,140,90.16h11.36l-3.72,9.68a3.67,3.67,0,0,0,2.11,4.73,3.62,3.62,0,0,0,2.63,0l13.34-5.13v31H125.41Zm-7.33-4.91A20.15,20.15,0,1,1,132,82.82H121.75a3.66,3.66,0,0,0-3.67,3.66Zm7.33-17.55h7.24a20.12,20.12,0,0,1-7.24,13.7Zm32,4.61,3.66-9.5,5.84,5.85Zm17-6.53L164,77.79l2.56-6.66h5.21l1.76,5.27a3.68,3.68,0,0,0,2.31,2.32l5.27,1.75v5.21ZM185.9,74.36l-2.14-.72,32.08-32.08L221,46.74,188.41,79.35V77.83A3.65,3.65,0,0,0,185.9,74.36Zm-7.32-5.9-.72-2.15a3.67,3.67,0,0,0-3.48-2.51h-1.52l32.62-32.61,5.18,5.18Zm-17.16-3.59h0a3.59,3.59,0,0,0-.83,1.27l-6.42,16.68H139.52a27.48,27.48,0,1,0-21.44,32.43v18.87a3.66,3.66,0,0,0,3.67,3.66h47.63a3.66,3.66,0,0,0,3.67-3.66V96.62l13-5a3.61,3.61,0,0,0,1.27-.84h0L217,61.1v84H63.12V53.51H172.79ZM226.2,41.55,210.66,26l5.18-5.18,15.55,15.54Zm0-29.57a3.62,3.62,0,0,1,2.59,1.07l10.37,10.37a3.65,3.65,0,0,1,0,5.17h0l-2.59,2.59L221,15.64l2.59-2.59A3.65,3.65,0,0,1,226.2,12ZM48.46,42.73a3.87,3.87,0,0,1,3.87-3.87H187.44l-7.33,7.33H59.45a3.66,3.66,0,0,0-3.66,3.66v98.94a3.66,3.66,0,0,0,3.66,3.66H220.69a3.66,3.66,0,0,0,3.66-3.66v-95l7.33-7.33V159.78H48.46Zm73.29,124.38h36.64v3.66a3.66,3.66,0,0,1-3.66,3.67H125.41a3.66,3.66,0,0,1-3.66-3.67Zm120.92,13.74a8.26,8.26,0,0,1-8.24,8.25H45.71a8.26,8.26,0,0,1-8.24-8.25V167.11h77v3.66a11,11,0,0,0,11,11h29.32a11,11,0,0,0,11-11v-3.66h76.95Z"/></svg>