<svg id="Capa_1" data-name="Capa 1" xmlns="http://www.w3.org/2000/svg" viewBox="0 0 250 250"><defs><style>.cls-1{fill:#f7cbc6;}.cls-2{fill:#f47137;}</style></defs><title>logo-designing</title><circle class="cls-1" cx="109.99" cy="134.63" r="109.99"/><path class="cls-2" d="M250,49.51a21.88,21.88,0,0,0-36.74-16.07,12.26,12.26,0,0,0-16.73,16.7L162.27,84.4V33.15H184.2a3.43,3.43,0,1,0,0-6.85H162.27V8.8a3.43,3.43,0,0,0-6.85,0V26.3H74.19a3.43,3.43,0,0,0,0,6.85h15L48.52,56.58l-.12.08V33.15H60.49a3.43,3.43,0,1,0,0-6.85H48.4V8.8a3.43,3.43,0,0,0-6.85,0V26.3H19.61a3.43,3.43,0,0,0,0,6.85H41.55V157.76H19.61a3.43,3.43,0,0,0,0,6.85H41.55V182.1a3.43,3.43,0,1,0,6.85,0V164.61h85.08a3.43,3.43,0,1,0,0-6.85h-18.8l14.44-8.34a8,8,0,0,0,5.22,2,8.21,8.21,0,0,0,2.75-.48l18.33-6.53v13.4h-8.24a3.43,3.43,0,0,0,0,6.85h8.24V182.1a3.43,3.43,0,1,0,6.85,0V164.61H184.2a3.43,3.43,0,1,0,0-6.85H162.27V141.92l6.09-2.17h0l.33-.13.07,0a1.71,1.71,0,0,0,.23-.13l.1-.06.2-.14.08-.06.25-.23h0l57.85-57.85a12.26,12.26,0,0,0,16.7-16.73A21.69,21.69,0,0,0,250,49.51ZM238.75,38.87a15,15,0,0,1,.87,20.31L218.44,38a15.07,15.07,0,0,1,20.31.87Zm-91,101-9.93-9.92,5.84-16.4c3-.31,5.17.08,6.26,1.17,1.31,1.31,1.62,4.14.89,8.18v.06c0,.1,0,.2,0,.3v.13a1.13,1.13,0,0,0,0,.26,3.42,3.42,0,0,0,4,3.23c4-.73,6.88-.42,8.18.89,1.09,1.09,1.48,3.24,1.17,6.26Zm20.07-16.94a10.87,10.87,0,0,0-5.36-2.85L193,89.49a3.43,3.43,0,1,0-4.85-4.84l-30.54,30.54a10.38,10.38,0,0,0-8.22-8.2L201.06,55.3l8.21,8.21-10,9.95a3.43,3.43,0,0,0,4.85,4.85l10-10,8.21,8.21-51.69,51.69a10.82,10.82,0,0,0-2.84-5.36ZM155.42,33.15V56.68l-.1-.06L114.71,33.15Zm-107,35.46A7.08,7.08,0,0,1,52,62.51l46.46-26.8a7.08,7.08,0,0,1,7,0l46.44,26.84a7.08,7.08,0,0,1,3.53,6.11V91.25l-15.1,15.1v-25a13.94,13.94,0,0,0-6.94-12L108.87,55.12a13.92,13.92,0,0,0-13.89,0L70.46,69.26a13.92,13.92,0,0,0-7,12v28.3a14,14,0,0,0,6.94,12L95,135.79a13.9,13.9,0,0,0,13.89,0l24.52-14.14.13-.08-6.75,19a8.08,8.08,0,0,0-.48,2.63l-20.85,12a7,7,0,0,1-7,0L51.92,128.35a7.05,7.05,0,0,1-3.51-6.1Zm85.06,12.7v28.31a7.11,7.11,0,0,1-3.53,6.1l-24.52,14.14a7.1,7.1,0,0,1-7,0l-24.5-14.17a7.06,7.06,0,0,1-3.52-6.1V81.29a7,7,0,0,1,3.53-6.1L98.4,61.05a7.06,7.06,0,0,1,7,0L130,75.21a7.06,7.06,0,0,1,3.52,6.1ZM48.4,157.76V134.23l.09.06,40.62,23.47Zm86.39-13.33a1.25,1.25,0,0,1-1.6-1.6l2.06-5.78,5.32,5.32ZM237.34,74.24a5.41,5.41,0,0,1-7.65,0l-.1-.1L203.48,48l-.1-.1a5.41,5.41,0,0,1,0-7.65,5.42,5.42,0,0,1,7.65,0L237.34,66.6a5.4,5.4,0,0,1,0,7.64Z"/></svg>