<svg id="Capa_1" data-name="Capa 1" xmlns="http://www.w3.org/2000/svg" viewBox="0 0 250 250"><defs><style>.cls-1{fill:#d4caff;}.cls-2{fill:#6749c4;}</style></defs><title>print-design</title><circle class="cls-1" cx="111.8" cy="133.55" r="111.8"/><path class="cls-2" d="M225.21,54.25h.08a24.8,24.8,0,0,0-.08-49.59H48.11A24.8,24.8,0,0,0,48,54.24H72.91v7.08H48.11A24.79,24.79,0,0,0,48,110.91l.09,0h24.8v81.51A3.54,3.54,0,0,0,76.45,196H189.78a3.31,3.31,0,0,0,1.18-.24l.15,0a3.6,3.6,0,0,0,1.21-.82l21.22-21.22a3.59,3.59,0,0,0,1-2.51V110.92h10.63a24.8,24.8,0,0,0,0-49.59H214.58V54.26h10.63ZM207.5,167.62H189.78a3.55,3.55,0,0,0-3.55,3.55V188.9H80V54.27H207.5Zm-14.18,7.09h9.17l-9.17,9.17ZM30.4,86.12a17.71,17.71,0,1,1,17.71,17.71A17.73,17.73,0,0,1,30.4,86.12Zm35,17.73a24.73,24.73,0,0,0,0-35.44h7.48v35.44Zm159.8-35.44a17.71,17.71,0,0,1,0,35.42H214.58V68.41Zm0-56.68a17.71,17.71,0,0,1,0,35.42l-.07,0H65.41a24.73,24.73,0,0,0,0-35.44ZM30.4,29.44A17.71,17.71,0,1,1,48.11,47.15,17.73,17.73,0,0,1,30.4,29.44Z"/><path class="cls-2" d="M58.73,86.12A10.63,10.63,0,1,0,48.11,96.75,10.63,10.63,0,0,0,58.73,86.12Zm-14.16,0a3.54,3.54,0,1,1,3.54,3.55A3.54,3.54,0,0,1,44.57,86.12Z"/><path class="cls-2" d="M58.73,29.46A10.63,10.63,0,1,0,48.11,40.08,10.64,10.64,0,0,0,58.73,29.46Zm-14.16,0A3.54,3.54,0,1,1,48.11,33,3.53,3.53,0,0,1,44.57,29.46Z"/><path class="cls-2" d="M101.35,143.84a4.18,4.18,0,0,0,.27.61,2.82,2.82,0,0,0,.36.54,3.13,3.13,0,0,0,.52.51c.1.08.15.19.26.25a2.09,2.09,0,0,0,.37.17,2.68,2.68,0,0,0,.34.16,3.68,3.68,0,0,0,1.22.24h85a2.45,2.45,0,0,0,.39-.08,3,3,0,0,0,.73-.14,3.47,3.47,0,0,0,.55-.26c.08,0,.17-.06.24-.1s.11-.12.18-.17a3.58,3.58,0,0,0,.65-.64,4,4,0,0,0,.29-.43,2.9,2.9,0,0,0,.3-.7,3.69,3.69,0,0,0,.14-.66c0-.12.07-.23.07-.36s-.05-.19-.06-.29a3.24,3.24,0,0,0-.15-.74,2.92,2.92,0,0,0-.23-.58,3.21,3.21,0,0,0-.12-.33L160.8,91.31l0,0a3.2,3.2,0,0,0-.52-.52,3,3,0,0,0-.48-.47s0,0,0,0a2.72,2.72,0,0,0-.5-.19,2.14,2.14,0,0,0-1.43-.31,2.92,2.92,0,0,0-.66,0,3.7,3.7,0,0,0-.78.3,3.66,3.66,0,0,0-.46.18s0,0,0,0a4.62,4.62,0,0,0-.5.49,3.5,3.5,0,0,0-.5.52s0,0,0,0l-16.59,25.77-7.57-11.65s0,0,0,0a4.62,4.62,0,0,0-.49-.5,4,4,0,0,0-.51-.5s0,0,0,0a2.82,2.82,0,0,0-.48-.19,3.65,3.65,0,0,0-.77-.31,23.13,23.13,0,0,0-1.36,0,3.65,3.65,0,0,0-.77.31,2.53,2.53,0,0,0-.48.19l0,0a3.94,3.94,0,0,0-.5.5,2.89,2.89,0,0,0-.49.5l0,0-23,35.42a1.72,1.72,0,0,0-.11.29,3,3,0,0,0-.26.65,3.34,3.34,0,0,0-.14.7c0,.1-.06.19-.06.29s.06.23.07.35a6,6,0,0,0,.15.71Zm39.8-18.18a.86.86,0,0,0,.1-.16l16.57-25.74,25.4,39.48H132.41ZM124,139.24H111.22l16.49-25.38,6.34,9.75Z"/><path class="cls-2" d="M111.78,96.67a10.63,10.63,0,1,0-10.63-10.62A10.63,10.63,0,0,0,111.78,96.67Zm0-14.16a3.54,3.54,0,1,1-3.54,3.54A3.54,3.54,0,0,1,111.78,82.51Z"/></svg>