<svg id="Capa_1" data-name="Capa 1" xmlns="http://www.w3.org/2000/svg" viewBox="0 0 250 250"><defs><style>.cls-1{fill:#d9f3ff;}.cls-2{fill:#189fea;}</style></defs><title>video-animation</title><circle class="cls-1" cx="111.8" cy="133.3" r="111.8"/><path class="cls-2" d="M180.59,83.44a3.8,3.8,0,0,0-1.38-1.38L121.14,49.4a3.62,3.62,0,0,0-5,1.36,3.57,3.57,0,0,0-.48,1.8v65.33a3.61,3.61,0,0,0,1.81,3.13,3.65,3.65,0,0,0,3.62,0l58.07-32.66A3.65,3.65,0,0,0,180.59,83.44ZM123,111.68V58.77l47,26.46Z"/><polygon class="cls-2" points="104.82 157.81 104.82 150.56 97.56 150.56 97.56 157.81 46.75 157.81 46.75 165.07 97.56 165.07 97.56 172.33 104.82 172.33 104.82 165.07 235.48 165.07 235.48 157.81 104.82 157.81"/><path class="cls-2" d="M141.12,27.15a58.08,58.08,0,1,0,58.07,58.08A58.08,58.08,0,0,0,141.12,27.15Zm0,108.89a50.82,50.82,0,1,1,50.81-50.81A50.81,50.81,0,0,1,141.12,136Z"/><path class="cls-2" d="M239.11,5.38h-196A10.89,10.89,0,0,0,32.23,16.27V176a10.89,10.89,0,0,0,10.89,10.89h196A10.88,10.88,0,0,0,250,176V16.27A10.88,10.88,0,0,0,239.11,5.38ZM242.74,176a3.62,3.62,0,0,1-3.63,3.63h-196A3.63,3.63,0,0,1,39.49,176V16.27a3.63,3.63,0,0,1,3.63-3.63h196a3.62,3.62,0,0,1,3.63,3.63Z"/><rect class="cls-2" x="46.75" y="19.89" width="7.26" height="7.26"/><rect class="cls-2" x="61.27" y="19.89" width="7.26" height="7.26"/><rect class="cls-2" x="75.79" y="19.89" width="7.26" height="7.26"/></svg>