<svg id="Capa_1" data-name="Capa 1" xmlns="http://www.w3.org/2000/svg" viewBox="0 0 250 250"><defs><style>.cls-1{fill:#f9c5eb;}.cls-2{fill:#c64769;}</style></defs><title>website-designing</title><circle class="cls-1" cx="111.8" cy="133.55" r="111.8"/><path class="cls-2" d="M230.82,59H77.4a3.19,3.19,0,0,0-3.19,3.19v60.73a3.19,3.19,0,0,0,3.19,3.2H230.82a3.2,3.2,0,0,0,3.2-3.2V62.18A3.19,3.19,0,0,0,230.82,59Zm-3.19,60.73H80.6V65.38h147v54.34Z"/><path class="cls-2" d="M140.39,91.89a3.19,3.19,0,0,0-4.52,0l-12.78,12.78a3.2,3.2,0,1,0,4.52,4.52L140.39,96.4A3.18,3.18,0,0,0,140.39,91.89Z"/><path class="cls-2" d="M153.18,104.67,140.39,91.89a3.19,3.19,0,0,0-4.52,4.51l12.79,12.79a3.2,3.2,0,1,0,4.52-4.52Z"/><path class="cls-2" d="M159.57,85.49a3.19,3.19,0,0,0-4.52,0L142.26,98.28a3.2,3.2,0,0,0,4.52,4.52L159.57,90A3.19,3.19,0,0,0,159.57,85.49Z"/><path class="cls-2" d="M172.35,98.28,159.57,85.49A3.2,3.2,0,1,0,155.05,90l12.78,12.79a3.22,3.22,0,0,0,2.26.93,3.19,3.19,0,0,0,2.26-5.45Z"/><path class="cls-2" d="M235.62,4.65h-163A14.4,14.4,0,0,0,58.23,19V182a14.4,14.4,0,0,0,14.38,14.38h163A14.4,14.4,0,0,0,250,182V19A14.4,14.4,0,0,0,235.62,4.65Zm8,177.39a8,8,0,0,1-8,8h-163a8,8,0,0,1-8-8V19a8,8,0,0,1,8-8h163a8,8,0,0,1,8,8Z"/><path class="cls-2" d="M87,17.44H74.21A3.19,3.19,0,0,0,71,20.63V33.42a3.19,3.19,0,0,0,3.2,3.19H87a3.19,3.19,0,0,0,3.2-3.19V20.63A3.19,3.19,0,0,0,87,17.44ZM83.8,30.22H77.4V23.83h6.4Z"/><path class="cls-2" d="M112.56,17.44H99.78a3.19,3.19,0,0,0-3.2,3.19V33.42a3.19,3.19,0,0,0,3.2,3.19h12.78a3.19,3.19,0,0,0,3.2-3.19V20.63A3.19,3.19,0,0,0,112.56,17.44Zm-3.19,12.78H103V23.83h6.4Z"/><path class="cls-2" d="M138.13,17.44H125.35a3.19,3.19,0,0,0-3.2,3.19V33.42a3.19,3.19,0,0,0,3.2,3.19h12.78a3.19,3.19,0,0,0,3.2-3.19V20.63A3.19,3.19,0,0,0,138.13,17.44Zm-3.19,12.78h-6.4V23.83h6.4Z"/><path class="cls-2" d="M186,71.77h-6.24a6.47,6.47,0,0,0-6.47,6.47v6.25A6.47,6.47,0,0,0,179.76,91H186a6.47,6.47,0,0,0,6.47-6.47V78.23A6.47,6.47,0,0,0,186,71.77Zm.08,12.72a.09.09,0,0,1-.08.07l-6.32-.07.08-6.33,6.32.08Z"/><path class="cls-2" d="M235.62,4.65h-163A14.4,14.4,0,0,0,58.23,19V46.2a3.19,3.19,0,0,0,3.19,3.2H246.8a3.2,3.2,0,0,0,3.2-3.2V19A14.4,14.4,0,0,0,235.62,4.65Zm8,38.36h-179V19a8,8,0,0,1,8-8h163a8,8,0,0,1,8,8Z"/><path class="cls-2" d="M192.47,135.7H77.4a3.2,3.2,0,0,0,0,6.39H192.47a3.2,3.2,0,0,0,0-6.39Z"/><path class="cls-2" d="M230.82,135.7H208.45a3.2,3.2,0,1,0,0,6.39h22.37a3.2,3.2,0,1,0,0-6.39Z"/><path class="cls-2" d="M230.82,148.48H115.76a3.2,3.2,0,1,0,0,6.39H230.82a3.2,3.2,0,1,0,0-6.39Z"/><path class="cls-2" d="M99.78,148.48H77.4a3.2,3.2,0,0,0,0,6.39H99.78a3.2,3.2,0,0,0,0-6.39Z"/><path class="cls-2" d="M192.47,161.27H77.4a3.2,3.2,0,0,0,0,6.39H192.47a3.2,3.2,0,0,0,0-6.39Z"/><path class="cls-2" d="M230.82,161.27H208.45a3.2,3.2,0,1,0,0,6.39h22.37a3.2,3.2,0,1,0,0-6.39Z"/><path class="cls-2" d="M230.82,174.05H115.76a3.2,3.2,0,1,0,0,6.39H230.82a3.2,3.2,0,1,0,0-6.39Z"/><path class="cls-2" d="M99.78,174.05H77.4a3.2,3.2,0,0,0,0,6.39H99.78a3.2,3.2,0,0,0,0-6.39Z"/></svg>