<svg id="Capa_1" data-name="Capa 1" xmlns="http://www.w3.org/2000/svg" viewBox="0 0 250 250"><defs><style>.cls-1{fill:#d9f3ff;}.cls-2{fill:#189fea;}</style></defs><title>2d-cartoon</title><circle class="cls-1" cx="111.8" cy="133.3" r="111.8"/><circle class="cls-2" cx="132.77" cy="45.01" r="6.17"/><circle class="cls-2" cx="175.96" cy="45.01" r="6.17"/><path class="cls-2" d="M153.88,91.28h1a52.26,52.26,0,0,0,29.1-8.81l6.07-4-3.42-5.13-6.07,4a46.12,46.12,0,0,1-25.68,7.77h-1a46.11,46.11,0,0,1-25.67-7.77l-6.07-4-3.43,5.13,6.08,4A52.25,52.25,0,0,0,153.88,91.28Z"/><path class="cls-2" d="M250,48.12v-.77a11.6,11.6,0,0,0-20.27-7.71L210.94,60.78c-2.44-5.32-7-10.2-13.6-14.27-1.76-25.34-18.48-41.61-43-41.61s-41.21,16.27-43,41.61c-6.56,4.06-11.16,9-13.6,14.27L79,39.64a11.6,11.6,0,0,0-20.27,7.71v.77a11.67,11.67,0,0,0,2.65,7.38l38.35,46.56-23.2,10.83a18.51,18.51,0,1,0,19.06,21l6.34-1.41V134a33.71,33.71,0,0,0,8.83,22.78l-8.68,26a3.28,3.28,0,0,0-.15,1,12.35,12.35,0,0,0,12.34,12.34h18.51a3.09,3.09,0,0,0,2.76-1.71l11.48-23h14.7l11.49,23a3.08,3.08,0,0,0,2.76,1.71h18.51a12.36,12.36,0,0,0,12.34-12.34,3.3,3.3,0,0,0-.16-1l-8.68-26A33.68,33.68,0,0,0,206.81,134v-1.55l6.34,1.41a18.51,18.51,0,1,0,19-21L209,102.06,247.36,55.5A11.68,11.68,0,0,0,250,48.12Zm-26.61,7.94,9.35,7.48-4.34,5.27-9.55-7.63Zm-69-45c16,0,27.82,7.73,33.4,21l-14.38-2.4a3.11,3.11,0,0,0-1.48.12l-17.54,5.84-17.53-5.84a3.11,3.11,0,0,0-1.48-.12L121,32C126.54,18.8,138.38,11.07,154.36,11.07ZM117.45,48.45a51.1,51.1,0,0,1,1.37-9.82l16.78-2.79,17.79,5.92a3,3,0,0,0,1,.16,3,3,0,0,0,1-.16l17.78-5.92,16.79,2.79a52.72,52.72,0,0,1,1.37,9.82A3.08,3.08,0,0,0,192.81,51c1.23.7,2.36,1.45,3.44,2.2l-14.05,4-9.06-3a58.7,58.7,0,0,0-18.53-3h-.49a58.71,58.71,0,0,0-18.54,3l-9.05,3-14-4c1.07-.75,2.2-1.5,3.43-2.2A3.09,3.09,0,0,0,117.45,48.45ZM107,58l18.78,5.37a3.14,3.14,0,0,0,1.82,0l10-3.32a52.26,52.26,0,0,1,16.59-2.69h.49A52.25,52.25,0,0,1,171.19,60l10,3.32a3.3,3.3,0,0,0,1,.16,3,3,0,0,0,.84-.12L201.75,58c3.28,3.65,5.06,7.62,5.06,11.66,0,11-13,21.27-32.45,25.6A3.14,3.14,0,0,0,173,96c-11.53,10-25.77,10-37.3,0a3.14,3.14,0,0,0-1.35-.68C115,91,101.92,80.67,101.92,69.69,101.92,65.65,103.69,61.68,107,58ZM201,124.89l2.08-18.76,9.3,4.34-6.64,15.47ZM195,123.54l-4.49-1-10-22.45c2-.56,3.85-1.2,5.68-1.87l11,5.15Zm2.59,51.59-24.67,4.94-1.84-3.69,24.24-8.08Zm-84.14-6.83,24.24,8.08-1.84,3.69-24.67-4.94Zm-10.49-42.36-6.63-15.47,9.29-4.34,2.09,18.76Zm10.81-2.4-2.24-20.16,11-5.15c1.82.67,3.7,1.31,5.68,1.87l-10,22.44Zm61-21.1L182.6,120l-10.46,5.23H157.45V109.63A34.73,34.73,0,0,0,174.79,102.44Zm-23.51,22.78h-14.7L126.12,120l7.81-17.55a34.62,34.62,0,0,0,17.34,7.18v15.6Zm-27.86.86.2-.44,10.85,5.42a3,3,0,0,0,1.38.33h15.43v9.82A9.11,9.11,0,0,0,145.67,153h-.06l-24.85-8.28Zm27.86,23.82a3.09,3.09,0,1,1,3.08,3.08A3.09,3.09,0,0,1,151.28,149.9Zm6.17-8.69v-9.82h15.42a3,3,0,0,0,1.38-.33l10.86-5.42.19.44L188,144.7,163.12,153h-.07a9,9,0,0,0,.57-3.08A9.25,9.25,0,0,0,157.45,141.21Zm-67.57-80-9.55,7.63L76,63.54l9.35-7.48Zm-25-13.06v-.77a5.43,5.43,0,0,1,9.49-3.61l6.84,7.7-9.16,7.33-5.92-7.2A5.43,5.43,0,0,1,64.89,48.12ZM84.25,73.58,94,65.79l1.9,2.14c0,.58-.13,1.17-.13,1.76,0,9.91,7.2,19,19.27,25.24l-9.53,4.44ZM92,128.38a3.07,3.07,0,0,0-2.41,3,12.35,12.35,0,1,1-12.35-12.34,3.09,3.09,0,0,0,1.31-.29l12.17-5.68,6.1,14.23Zm16.1,5.66v-2.92l8.65-1.92-2.42,16.92-1.25,3.76A27.51,27.51,0,0,1,108.09,134Zm22.77,56h-16.6a6.18,6.18,0,0,1-6.16-5.72l1.09-3.26L133,185.79Zm14.25-24.69a3.08,3.08,0,0,0-2.76,1.71l-1.89,3.78-25.08-8.36,3.91-11.73L144.13,159a3.28,3.28,0,0,0,1,.15h18.51a3.17,3.17,0,0,0,1-.15l24.84-8.28,3.91,11.73-25.08,8.36L166.38,167a3.09,3.09,0,0,0-2.76-1.71ZM194.47,190H177.86l-2.11-4.22L199.54,181l1.08,3.26A6.18,6.18,0,0,1,194.47,190Zm6.17-56a27.58,27.58,0,0,1-5,15.84l-1.26-3.77L192,129.2l8.66,1.92Zm30.85-15a12.34,12.34,0,1,1-12.34,12.34,3.07,3.07,0,0,0-2.42-3l-4.82-1.07,6.1-14.23,12.18,5.68A3,3,0,0,0,231.49,119.05ZM193.7,94.93C205.78,88.65,213,79.6,213,69.69c0-.59-.09-1.18-.14-1.76l1.9-2.14,9.73,7.79L203.23,99.37Zm50.13-46.81a5.4,5.4,0,0,1-1.24,3.45l-5.92,7.2-9.17-7.33,6.84-7.7a5.43,5.43,0,0,1,9.49,3.61Z"/></svg>