<svg id="Capa_1" data-name="Capa 1" xmlns="http://www.w3.org/2000/svg" viewBox="0 0 250 250"><defs><style>.cls-1{fill:#e5e1ff;}.cls-2{fill:#6a49c4;}</style></defs><title>3d-animation</title><circle class="cls-1" cx="111.8" cy="133.55" r="111.8"/><g id="outline"><path class="cls-2" d="M208.45,17.43a3.14,3.14,0,0,0-2.61-3.12L154.71,4.7a3.34,3.34,0,0,0-1.18,0L102.4,14.31a3.14,3.14,0,0,0-2.6,3.12V27H58.25V161.25h57.52v7l-45.26,9.06c-5.26.88-12.26,3.15-12.26,12.74v3.19a3.2,3.2,0,0,0,3.2,3.2,4.55,4.55,0,0,0,.52,0l57.27-9.55H189l57.27,9.55a3,3,0,0,0,.52,0,3.2,3.2,0,0,0,3.2-3.2V190c0-9.56-6.95-11.85-12.2-12.73l-45.33-9.07v-7H250V27H208.45ZM154.12,11.1l36.18,6.78-36.18,9-36.17-9Zm47.94,10.43V72.74L157.32,89.52V32.71Zm-95.87,0,44.74,11.18V89.52L106.19,72.74ZM101.87,78,153,97.13a3.26,3.26,0,0,0,2.25,0L206.38,78a3.19,3.19,0,0,0,2.07-3V46.2h22.37v95.87H77.42V46.2H99.8V75A3.18,3.18,0,0,0,101.87,78Zm134.71,105.6.1,0c5.55.93,6.78,2.65,6.91,5.86l-53.8-9-.51-.06H119a2.38,2.38,0,0,0-.53.05l-53.8,9c.12-3.2,1.36-4.93,7-5.88L119.29,174H189ZM122.17,167.64v-6.39h63.91v6.39ZM243.61,33.41V154.85h-179V33.41H99.8V39.8H71V148.46H237.22V39.8H208.45V33.41Z"/><path class="cls-2" d="M104.39,104.27a3.21,3.21,0,0,0-1.4,2.65v19.17a3.21,3.21,0,0,0,2,3l16,6.39a6,6,0,0,0,1.19.23,6.1,6.1,0,0,0,1.19-.23l16-6.39a3.19,3.19,0,0,0,2-3V106.92a3.19,3.19,0,0,0-1.4-2.65c-.2-.12-.4-.22-.61-.32l-16-6.39a3.26,3.26,0,0,0-2.38,0L105,104c-.21.1-.41.2-.61.32ZM135,123.93l-9.59,3.83V115.47l9.59-3.83Zm-12.78-20,7.37,3-7.37,3-7.38-3Zm-12.79,7.67,9.59,3.83v12.29l-9.59-3.83Z"/><path class="cls-2" d="M178.26,116.18l12.79,6.4a3.18,3.18,0,0,0,2.85,0l12.79-6.4a3.16,3.16,0,0,0,1.76-2.87V100.52a3.22,3.22,0,0,0-1.51-2.72l-.25-.14L193.9,91.27a3.18,3.18,0,0,0-2.85,0l-12.79,6.39-.25.14a3.22,3.22,0,0,0-1.51,2.72v12.79a3.16,3.16,0,0,0,1.76,2.87Zm23.8-4.85-6.39,3.2v-5.64l6.39-3.19Zm-9.59-13.62,5.64,2.81-5.64,2.82-5.63-2.82Zm-9.58,8,6.39,3.19v5.64l-6.39-3.2Z"/><path class="cls-2" d="M218,129.29H205.26v6.39h19.17V110.11H218Z"/><path class="cls-2" d="M221.24,83.51V65.37h-6.39V79.19l-14,5.58,2.38,5.94Z"/><path class="cls-2" d="M93.4,52.59H87V83.46l24.31,10.41L113.84,88,93.4,79.24Z"/><path class="cls-2" d="M150.93,106.92h6.39v6.39h-6.39Z"/><path class="cls-2" d="M90.21,126.09H96.6v6.39H90.21Z"/><path class="cls-2" d="M160.52,119.7h6.39v6.39h-6.39Z"/></g></svg>