<svg id="Capa_1" data-name="Capa 1" xmlns="http://www.w3.org/2000/svg" viewBox="0 0 250 250"><defs><style>.cls-1{fill:#f7cbc6;}.cls-2{fill:#f47137;}</style></defs><title>typography</title><circle class="cls-1" cx="109.99" cy="134.63" r="109.99"/><path class="cls-2" d="M226.94,159.83h7.57V108.07h-7.57a2.65,2.65,0,0,1-2.64-2.65V85a2.64,2.64,0,0,1,2.64-2.65h7.57V30.61h-7.57A2.65,2.65,0,0,1,224.3,28V20.4H172.54V28a2.65,2.65,0,0,1-2.64,2.65H149.49A2.65,2.65,0,0,1,146.83,28V20.4H95.08V28a2.65,2.65,0,0,1-2.65,2.65H84.87V82.36h7.56A2.65,2.65,0,0,1,95.08,85v20.41a2.65,2.65,0,0,1-2.65,2.64H84.87v51.77h7.56a2.65,2.65,0,0,1,2.65,2.64V170h51.75v-7.57a2.64,2.64,0,0,1,2.66-2.64H169.9a2.64,2.64,0,0,1,2.64,2.64V170H224.3v-7.57a2.64,2.64,0,0,1,2.64-2.64ZM103.48,95.92a2.65,2.65,0,1,1,0-5.29h31.93a2.65,2.65,0,0,1,0,5.29Zm0,25.25a2.65,2.65,0,1,1,0-5.29h31.93a2.65,2.65,0,0,1,0,5.29Zm0,25.24a2.65,2.65,0,1,1,0-5.29h31.93a2.65,2.65,0,0,1,0,5.29Zm0-37.86a2.65,2.65,0,1,1,0-5.29h31.93a2.65,2.65,0,0,1,0,5.29Zm0,25.24a2.65,2.65,0,1,1,0-5.29h31.93a2.65,2.65,0,0,1,0,5.29Zm76.16-58.28a2.65,2.65,0,1,1,0,5.29H159v9.83h19.12a2.64,2.64,0,0,1,2.64,2.65v47.84h9.83V93.28a2.64,2.64,0,0,1,2.65-2.65h19.11V80.8H191.63a2.65,2.65,0,1,1,0-5.29H215a2.65,2.65,0,0,1,2.64,2.65V93.28A2.64,2.64,0,0,1,215,95.92H195.84v47.84a2.65,2.65,0,0,1-2.64,2.65H178.08a2.65,2.65,0,0,1-2.65-2.65V95.92h-5.91v47.84a2.65,2.65,0,0,1-2.64,2.65H146.45a2.65,2.65,0,0,1-2.64-2.65V66.69H117.07a2.65,2.65,0,0,1-2.65-2.64V43.63A2.65,2.65,0,0,1,117.07,41h33.6a2.65,2.65,0,1,1,0,5.29H119.72V61.4h26.73a2.65,2.65,0,0,1,2.66,2.65v77.07h15.12V95.92h-7.92a2.64,2.64,0,0,1-2.64-2.64V78.16a2.65,2.65,0,0,1,2.64-2.65h7.92V64.05a2.64,2.64,0,0,1,2.65-2.65h26.73V46.28h-31a2.65,2.65,0,0,1,0-5.29h33.6a2.64,2.64,0,0,1,2.64,2.64V64.05a2.64,2.64,0,0,1-2.64,2.64H169.52v8.82Zm60.16,84.32h7.56a2.64,2.64,0,0,1,2.64,2.64v20.42a2.64,2.64,0,0,1-2.64,2.64H226.94a2.64,2.64,0,0,1-2.64-2.64v-7.56H172.54v7.56a2.64,2.64,0,0,1-2.64,2.64H149.48a2.64,2.64,0,0,1-2.65-2.64v-7.56H95.08v7.56a2.65,2.65,0,0,1-2.65,2.64H72a2.65,2.65,0,0,1-2.65-2.64V162.47A2.65,2.65,0,0,1,72,159.83h7.56V108.07H72a2.65,2.65,0,0,1-2.65-2.65V85A2.65,2.65,0,0,1,72,82.36h7.56V30.61H72A2.65,2.65,0,0,1,69.37,28V7.55A2.65,2.65,0,0,1,72,4.9H92.43a2.65,2.65,0,0,1,2.65,2.65v7.56h51.75V7.55a2.65,2.65,0,0,1,2.65-2.65H169.9a2.65,2.65,0,0,1,2.64,2.65v7.56H224.3V7.55a2.65,2.65,0,0,1,2.64-2.65h20.42A2.65,2.65,0,0,1,250,7.55V28a2.65,2.65,0,0,1-2.64,2.65H239.8V82.36h7.56A2.64,2.64,0,0,1,250,85v20.41a2.64,2.64,0,0,1-2.64,2.64H239.8v51.77Zm4.91,5.29H229.59v15.12h15.12ZM89.78,10.19H74.66V25.31H89.78Zm77.47,0H152.13V25.31h15.12Zm77.46,0H229.59V25.31h15.12Zm0,77.46H229.59v15.12h15.12Zm-154.93,0H74.66v15.12H89.78Zm0,77.47H74.66v15.12H89.78Zm77.47,0H152.13v15.12h15.12Z"/></svg>