<svg id="Capa_1" data-name="Capa 1" xmlns="http://www.w3.org/2000/svg" viewBox="0 0 250 250"><defs><style>.cls-1{fill:#f9c5eb;}.cls-2{fill:#c64769;}</style></defs><title>whiteboard</title><circle class="cls-1" cx="111.8" cy="133.55" r="111.8"/><path class="cls-2" d="M246.69,141.89V19.49a8.24,8.24,0,0,0-5-14.84H53.29a8.24,8.24,0,0,0-5,14.84v122.4a8.24,8.24,0,0,0,5,14.84H93.83L72.37,178.16a9.92,9.92,0,0,0,14,14l35-35.08a3.28,3.28,0,0,0,.27-.38h15.87v29.75a9.92,9.92,0,0,0,19.84,0V156.73h15.88a3.19,3.19,0,0,0,.26.38l35,35.08a9.92,9.92,0,1,0,14-14l-21.45-21.43h40.54a8.24,8.24,0,0,0,5-14.84Zm-165,45.63a3.41,3.41,0,0,1-4.68,0,3.31,3.31,0,0,1,0-4.68h0l26.15-26.11h9.3Zm69.1-1a3.31,3.31,0,1,1-6.62,0V156.73h6.62ZM218,182.85a3.3,3.3,0,0,1,0,4.67h0a3.41,3.41,0,0,1-4.68,0l-30.76-30.8h9.3Zm23.76-32.73H53.29a1.66,1.66,0,0,1,0-3.31H241.73a1.66,1.66,0,1,1,0,3.31ZM54.94,140.2v-119H240.08v119ZM241.73,14.57H53.29a1.66,1.66,0,0,1,0-3.31H241.73a1.66,1.66,0,1,1,0,3.31Z"/></svg>