<svg id="Capa_1" data-name="Capa 1" xmlns="http://www.w3.org/2000/svg" viewBox="0 0 250 250"><defs><style>.cls-1{fill:#f7cbc6;}.cls-2{fill:#f47137;}</style></defs><title>ecommerce</title><circle class="cls-1" cx="109.99" cy="134.63" r="109.99"/><path class="cls-2" d="M243.17,5.38H57.42a6.83,6.83,0,0,0-6.83,6.82V138.27a6.84,6.84,0,0,0,6.83,6.83H95.81l.79,3.66a9.82,9.82,0,0,0,7.84,7.56,19.67,19.67,0,1,0,34.46.15h16.34a19.46,19.46,0,0,0-2.39,9.39,19.67,19.67,0,1,0,36.91-9.45,9.81,9.81,0,0,0,8.55-7.65l21.25-98.91h24.59v88.42a1,1,0,0,1-1,1H211.29a2.93,2.93,0,1,0,0,5.86h31.88a6.84,6.84,0,0,0,6.83-6.83V12.2a6.83,6.83,0,0,0-6.83-6.82ZM121.63,179.68a13.82,13.82,0,1,1,13.82-13.82,13.84,13.84,0,0,1-13.82,13.82Zm50.88,0a13.82,13.82,0,1,1,13.82-13.82,13.83,13.83,0,0,1-13.82,13.82ZM235.83,44a9.75,9.75,0,0,0-6.56-17h-9.21a19.36,19.36,0,0,0-18.82,15.21L200.86,44H173.23a2.93,2.93,0,0,0,0,5.85h26.38l-3,13.83H90.39a9.75,9.75,0,0,0-9.54,11.8l7.22,33.58a2.93,2.93,0,0,0,5.72-1.23L86.57,74.25a3.9,3.9,0,0,1,3.82-4.72H199a2.92,2.92,0,0,0,2.86-2.31L207,43.47a13.45,13.45,0,0,1,13.09-10.58h9.21a3.9,3.9,0,0,1,0,7.8h-9.21a5.63,5.63,0,0,0-5.47,4.42l-22,102.42a3.93,3.93,0,0,1-3.82,3.09h-3.85a19.58,19.58,0,0,0-24.81,0H134a19.6,19.6,0,0,0-24.82,0h-3.09a3.92,3.92,0,0,1-3.81-3.09l-6-27.94a2.92,2.92,0,1,0-5.72,1.22l4,18.43H57.42a1,1,0,0,1-1-1V49.85H159.7a2.93,2.93,0,1,0,0-5.85H56.44V12.2a1,1,0,0,1,1-1H243.17a1,1,0,0,1,1,1V44Z"/><circle class="cls-2" cx="72.22" cy="27.51" r="5.71"/><circle class="cls-2" cx="89.57" cy="27.51" r="5.71"/><circle class="cls-2" cx="106.92" cy="27.51" r="5.71"/><path class="cls-2" d="M155.68,126.19H138.47a2.93,2.93,0,0,0-2.92,3.16l.89,10.78a2.92,2.92,0,0,0,2.91,2.68h15.44a2.93,2.93,0,0,0,2.92-2.68l.88-10.78a2.91,2.91,0,0,0-2.91-3.16ZM152.09,137h-10l-.41-4.92H152.5Z"/><path class="cls-2" d="M98.29,91.65A2.93,2.93,0,0,0,101.15,94h20.48a3,3,0,0,0,2.92-3.17L123.66,80a2.93,2.93,0,0,0-2.92-2.69H98.84A2.94,2.94,0,0,0,96,80.87Zm19.76-8.47.4,4.92H103.52l-1.06-4.92Z"/><path class="cls-2" d="M109.34,126.19a2.93,2.93,0,0,0-2.87,3.54l2.32,10.77a2.92,2.92,0,0,0,2.86,2.31h14a2.91,2.91,0,0,0,2.92-3.16l-.89-10.78a2.92,2.92,0,0,0-2.91-2.68ZM114,137,113,132h9.11l.41,4.92Z"/><path class="cls-2" d="M104.09,101.76a2.93,2.93,0,0,0-2.28,1.09,2.88,2.88,0,0,0-.58,2.45l2.31,10.77a2.93,2.93,0,0,0,2.86,2.32h17.24a2.94,2.94,0,0,0,2.92-3.17l-.89-10.77a2.92,2.92,0,0,0-2.92-2.69Zm4.67,10.77-1.05-4.92h12.35l.4,4.92Z"/><path class="cls-2" d="M132.42,91.27A2.92,2.92,0,0,0,135.33,94h23.48a2.94,2.94,0,0,0,2.92-2.69l.88-10.77a2.93,2.93,0,0,0-2.91-3.17H134.44a2.93,2.93,0,0,0-2.91,3.17Zm24.1-8.09-.4,4.92H138l-.41-4.92Z"/><path class="cls-2" d="M170.5,118.38h18a2.93,2.93,0,0,0,2.86-2.31l2.31-10.77a2.92,2.92,0,0,0-2.86-3.54H171.39a2.94,2.94,0,0,0-2.92,2.69l-.88,10.77a2.91,2.91,0,0,0,2.91,3.16Zm3.58-10.77H187.2l-1.06,4.92H173.68Z"/><path class="cls-2" d="M172.51,94h21.24a2.93,2.93,0,0,0,2.86-2.31l2.32-10.78a3,3,0,0,0-2.86-3.54H173.4A2.92,2.92,0,0,0,170.49,80l-.89,10.77A2.94,2.94,0,0,0,172.51,94Zm3.59-10.78h16.35l-1.06,4.92h-15.7Z"/><path class="cls-2" d="M157.69,101.76H136.46a2.92,2.92,0,0,0-2.92,3.17l.89,10.77a2.92,2.92,0,0,0,2.91,2.69H156.8a2.94,2.94,0,0,0,2.92-2.69l.88-10.77a2.92,2.92,0,0,0-2.91-3.17Zm-3.58,10.77H140l-.41-4.92h14.88Z"/><path class="cls-2" d="M168.49,142.81h14.77a2.92,2.92,0,0,0,2.86-2.31l2.31-10.77a2.91,2.91,0,0,0-2.86-3.54H169.38a2.94,2.94,0,0,0-2.92,2.68l-.88,10.78a2.91,2.91,0,0,0,2.91,3.16ZM172.07,132H182L180.89,137h-9.22Z"/><path class="cls-2" d="M121.63,160.84a5,5,0,1,0,5,5A5,5,0,0,0,121.63,160.84Z"/><path class="cls-2" d="M172.51,160.84a5,5,0,1,0,5,5A5,5,0,0,0,172.51,160.84Z"/></svg>