<svg id="Capa_1" data-name="Capa 1" xmlns="http://www.w3.org/2000/svg" viewBox="0 0 250 250"><defs><style>.cls-1{fill:#f9c5eb;}.cls-2{fill:#c64769;}</style></defs><title>round-the-clock</title><circle class="cls-1" cx="111.8" cy="133.55" r="111.8"/><path class="cls-2" d="M238.76,34.62h-9V15.89A11.25,11.25,0,0,0,218.54,4.65H89.69A11.25,11.25,0,0,0,78.45,15.89V34.62h-9A11.25,11.25,0,0,0,58.23,45.85V153.72A11.25,11.25,0,0,0,69.46,165h65.93v9h-7.13A11.25,11.25,0,0,0,117,185.19v7.49a3.74,3.74,0,0,0,3.75,3.74h66.69a3.73,3.73,0,0,0,3.74-3.74v-7.49A11.25,11.25,0,0,0,180,174h-7.13v-9h65.92A11.25,11.25,0,0,0,250,153.72V45.85A11.25,11.25,0,0,0,238.76,34.62Zm0,7.49a3.75,3.75,0,0,1,3.75,3.74V132H229.77V42.11Zm-149.07-30H218.54a3.75,3.75,0,0,1,3.74,3.75V34.62H85.94V15.89A3.75,3.75,0,0,1,89.69,12.14Zm-20.23,30h9V70.19a3.75,3.75,0,1,0,7.49,0V42.11H222.28V132h-19.1V119.66a3.75,3.75,0,0,0-3.75-3.75h-4.87a42.13,42.13,0,0,0-3.51-8.48l3.44-3.45a3.72,3.72,0,0,0,0-5.29L183.12,87.32a3.72,3.72,0,0,0-5.29,0l-3.45,3.44a42.13,42.13,0,0,0-8.48-3.51V82.38a3.75,3.75,0,0,0-3.75-3.75H146.07a3.74,3.74,0,0,0-3.74,3.75v4.87a41.89,41.89,0,0,0-8.48,3.51l-3.45-3.44a3.74,3.74,0,0,0-5.3,0L113.73,98.69a3.74,3.74,0,0,0,0,5.29l3.45,3.45a42.16,42.16,0,0,0-3.52,8.48h-4.87a3.74,3.74,0,0,0-3.74,3.75V132H85.94V103.91a3.75,3.75,0,1,0-7.49,0V132H65.72V45.85a3.75,3.75,0,0,1,3.74-3.74Zm55.08,62.09-2.86-2.86,6.07-6.08,2.86,2.86a3.75,3.75,0,0,0,4.69.5,34.35,34.35,0,0,1,11.55-4.79,3.75,3.75,0,0,0,3-3.66v-4h8.59v4a3.74,3.74,0,0,0,3,3.66,34.4,34.4,0,0,1,11.56,4.79,3.74,3.74,0,0,0,4.68-.5l2.87-2.86,6.07,6.08-2.86,2.86a3.75,3.75,0,0,0-.5,4.69A34.26,34.26,0,0,1,188,120.44a3.74,3.74,0,0,0,3.66,3h4.05V132H172.34a18.73,18.73,0,1,0-37-4.3,18.26,18.26,0,0,0,.51,4.3H112.54v-8.6h4a3.75,3.75,0,0,0,3.67-3A34.24,34.24,0,0,1,125,108.89a3.74,3.74,0,0,0-.49-4.69Zm18.33,23.5a11.24,11.24,0,1,1,22.48,0,11.12,11.12,0,0,1-.87,4.3H143.74A11.12,11.12,0,0,1,142.87,127.7Zm40.84,57.49v3.74h-59.2v-3.74a3.75,3.75,0,0,1,3.75-3.75H180a3.75,3.75,0,0,1,3.74,3.75ZM165.35,174H142.88v-9h22.47Zm73.41-16.48H69.46a3.75,3.75,0,0,1-3.74-3.75V139.49H242.51v14.23A3.75,3.75,0,0,1,238.76,157.47Z"/><path class="cls-2" d="M165.35,27.12H205.8a3.75,3.75,0,1,0,0-7.49H165.35a3.75,3.75,0,1,0,0,7.49Z"/><path class="cls-2" d="M118.9,27.12a3.75,3.75,0,0,0,0-7.49,3.76,3.76,0,0,0-3.74,3.75,3.74,3.74,0,0,0,3.74,3.74Z"/><path class="cls-2" d="M102.42,27.12a3.75,3.75,0,0,0,0-7.49,3.76,3.76,0,0,0-3.74,3.75,3.74,3.74,0,0,0,3.74,3.74Z"/><path class="cls-2" d="M135.39,27.12A3.74,3.74,0,1,0,132.74,26,3.77,3.77,0,0,0,135.39,27.12Z"/><path class="cls-2" d="M100.18,60.08h8.91a3.75,3.75,0,1,0,0-7.49h-8.91a3.75,3.75,0,1,0,0,7.49Z"/><path class="cls-2" d="M125.57,60.08h34.36a3.75,3.75,0,1,0,0-7.49H125.57a3.75,3.75,0,0,0,0,7.49Z"/><path class="cls-2" d="M100.18,78.06H121.9a3.75,3.75,0,1,0,0-7.49H100.18a3.75,3.75,0,1,0,0,7.49Z"/><path class="cls-2" d="M176.41,60.08h31.64a3.75,3.75,0,1,0,0-7.49H176.41a3.75,3.75,0,0,0,0,7.49Z"/><path class="cls-2" d="M208.05,70.57H182.42a3.75,3.75,0,1,0,0,7.49h25.63a3.75,3.75,0,1,0,0-7.49Z"/><path class="cls-2" d="M82.2,90.8a3.75,3.75,0,1,0-2.65-6.4,3.74,3.74,0,0,0,0,5.3A3.81,3.81,0,0,0,82.2,90.8Z"/></svg>