<svg id="Capa_1" data-name="Capa 1" xmlns="http://www.w3.org/2000/svg" viewBox="0 0 250 250"><defs><style>.cls-1{fill:#d9f3ff;}.cls-2{fill:#189fea;}</style></defs><title>third-party</title><circle class="cls-1" cx="111.8" cy="133.3" r="111.8"/><path class="cls-2" d="M145.86,22.39a26.83,26.83,0,0,0-9-1.55v6.38a20.43,20.43,0,0,1,6.9,1.18Z"/><path class="cls-2" d="M127.79,22.39a27.17,27.17,0,0,0-18.06,25.55h6.38A20.77,20.77,0,0,1,129.92,28.4Z"/><path class="cls-2" d="M218.12,147V135a38.24,38.24,0,0,0-6.38-75.94,37.74,37.74,0,0,0-13.17,2.36,19.17,19.17,0,0,0-18.7-15.11h0a43,43,0,0,0-86,1.6,42.25,42.25,0,0,0,.33,5.27,41.39,41.39,0,0,0-3.52,81.24V147L69.22,168.42a3.16,3.16,0,0,0-.93,2.25v12.75h6.37V172l21.39-21.38a3.22,3.22,0,0,0,.93-2.25V135.44c1,.09,2.11.17,3.19.17h9.56v17.8l-15,15a3.17,3.17,0,0,0-.94,2.25v12.75h6.38V172l15-15a3.19,3.19,0,0,0,.94-2.26V135.61h15.94v24.18l-8.63,8.63a3.17,3.17,0,0,0-.94,2.25v12.75h6.38V172l8.63-8.63a3.16,3.16,0,0,0,.93-2.25v-25.5h12.75v47.81h6.38V135.61H170.3v25.5a3.17,3.17,0,0,0,.94,2.25l8.63,8.63v11.43h6.37V170.67a3.16,3.16,0,0,0-.93-2.25l-8.63-8.63V135.61h15.94v19.12a3.18,3.18,0,0,0,.93,2.26l15,15v11.43h6.37V170.67a3.16,3.16,0,0,0-.93-2.25l-15-15v-17.8h12.75v12.75a3.19,3.19,0,0,0,.94,2.25L234.06,172v11.43h6.38V170.67a3.17,3.17,0,0,0-.94-2.25ZM100.17,129.23a35,35,0,0,1-2.17-70,3.2,3.2,0,0,0,2.93-3.83,36.66,36.66,0,1,1,72.56-7.44c0,.35,0,.71-.05,1.06l-.05.73A3.2,3.2,0,0,0,177.24,53a12.79,12.79,0,0,1,15.37,12.42c0,.09-.06.49-.07.59a3.2,3.2,0,0,0,4.65,3,31.51,31.51,0,0,1,14.55-3.54,31.88,31.88,0,0,1,0,63.76Z"/><path class="cls-2" d="M234.06,189.8h6.38v6.38h-6.38Z"/><path class="cls-2" d="M208.56,189.8h6.37v6.38h-6.37Z"/><path class="cls-2" d="M179.87,189.8h6.37v6.38h-6.37Z"/><path class="cls-2" d="M68.29,189.8h6.37v6.38H68.29Z"/><path class="cls-2" d="M93.79,189.8h6.38v6.38H93.79Z"/><path class="cls-2" d="M122.48,189.8h6.38v6.38h-6.38Z"/><path class="cls-2" d="M151.17,189.8h6.38v6.38h-6.38Z"/><path class="cls-2" d="M138.42,75h6.38v6.38h-6.38Z"/><path class="cls-2" d="M138.42,87.79h6.38v6.37h-6.38Z"/><path class="cls-2" d="M138.42,100.54h6.38v6.37h-6.38Z"/><path class="cls-2" d="M151.17,75h6.38v6.38h-6.38Z"/><path class="cls-2" d="M151.17,87.79h6.38v6.37h-6.38Z"/><path class="cls-2" d="M151.17,100.54h6.38v6.37h-6.38Z"/><path class="cls-2" d="M163.93,75h6.37v6.38h-6.37Z"/><path class="cls-2" d="M163.93,87.79h6.37v6.37h-6.37Z"/><path class="cls-2" d="M163.93,100.54h6.37v6.37h-6.37Z"/><path class="cls-2" d="M176.68,113.29H163.93v6.38h15.94a3.18,3.18,0,0,0,3.18-3.19V97.35h-6.37Z"/><path class="cls-2" d="M148,62.28H128.86a3.19,3.19,0,0,0-3.19,3.19V84.6h6.38V68.66H148Z"/><path class="cls-2" d="M144.8,113.29h12.75v6.38H144.8Z"/><path class="cls-2" d="M154.36,62.28h9.57v6.38h-9.57Z"/><path class="cls-2" d="M179.87,62.28H170.3v6.38h6.38V91h6.37V65.47A3.18,3.18,0,0,0,179.87,62.28Z"/><path class="cls-2" d="M132.05,91h-6.38v25.51a3.19,3.19,0,0,0,3.19,3.19h9.56v-6.38h-6.37Z"/></svg>