<svg id="Capa_1" data-name="Capa 1" xmlns="http://www.w3.org/2000/svg" viewBox="0 0 250 250"><defs><style>.cls-1{fill:#c5fcd4;}.cls-2{fill:#46c767;}</style></defs><title>ui-ux</title><circle class="cls-1" cx="114.91" cy="133.5" r="111.8"/><circle class="cls-2" cx="61.84" cy="19.8" r="4.04"/><circle class="cls-2" cx="78.39" cy="19.8" r="4.04"/><circle class="cls-2" cx="94.94" cy="19.8" r="4.04"/><path class="cls-2" d="M235.91,4.69H53.28a11,11,0,0,0-11,11V80.76a3,3,0,0,0,6,0V34.91H240.9V48.82a3,3,0,1,0,6,0V15.68A11,11,0,0,0,235.91,4.69ZM48.28,28.91V15.68a5,5,0,0,1,5-5H235.91a5,5,0,0,1,5,5V28.91Z"/><path class="cls-2" d="M243.9,59.78a3,3,0,0,0-3,3v83.06a5,5,0,0,1-5,5H53.28a5,5,0,0,1-5-5V94.78a3,3,0,1,0-6,0v51.05a11,11,0,0,0,11,11H235.91a11,11,0,0,0,11-11V62.77A3,3,0,0,0,243.9,59.78Z"/><path class="cls-2" d="M134.45,58.73h20.18a3,3,0,0,0,0-6H134.45a3,3,0,0,0,0,6Z"/><path class="cls-2" d="M157.63,67.84a3,3,0,0,0-3-3H134.45a3,3,0,0,0,0,6h20.18A3,3,0,0,0,157.63,67.84Z"/><path class="cls-2" d="M225.73,167h-55a3,3,0,0,0,0,6h24.55v5.71H82.83a3,3,0,1,0,0,6H195.29v5.71H78.66l-10.51-8.71L78.66,173h78.17a3,3,0,0,0,0-6H77.58a3,3,0,0,0-1.91.69L61.54,179.37a3,3,0,0,0,0,4.62l14.13,11.7a3,3,0,0,0,1.91.69H225.73a3,3,0,0,0,3-3V170a3,3,0,0,0-3-3Zm-3,23.42H201.28V173h21.46Z"/><path class="cls-2" d="M83.23,89.06a3,3,0,0,0-3,3V104H63.05a3,3,0,0,0-3,3v32.29a3,3,0,0,0,3,3h40.37a3,3,0,0,0,3-3V107a3,3,0,0,0-3-3H86.23V95.06h55.36V104H124.41a3,3,0,0,0-3,3v32.29a3,3,0,0,0,3,3h40.37a3,3,0,0,0,3-3V107a3,3,0,0,0-3-3H147.59V95.06H203V104H185.77a3,3,0,0,0-3,3v32.29a3,3,0,0,0,3,3h40.37a3,3,0,0,0,3-3V107a3,3,0,0,0-3-3H209V92.06a3,3,0,0,0-3-3H147.59V80.93h17.19a3,3,0,0,0,3-3V45.64a3,3,0,0,0-3-3H124.41a3,3,0,0,0-3,3V77.93a3,3,0,0,0,3,3h17.18v8.13Zm17.19,47.23H66V110h34.38Zm61.36,0H127.4V110h34.38Zm61.36,0H188.77V110h34.37ZM127.4,48.63h34.38v26.3H127.4Z"/><path class="cls-2" d="M192.86,117.09a3,3,0,0,0,3,3H216a3,3,0,0,0,0-6H195.86A3,3,0,0,0,192.86,117.09Z"/><path class="cls-2" d="M216,126.2H195.86a3,3,0,0,0,0,6H216a3,3,0,1,0,0-6Z"/><path class="cls-2" d="M131.5,117.09a3,3,0,0,0,3,3h20.18a3,3,0,0,0,0-6H134.5A3,3,0,0,0,131.5,117.09Z"/><path class="cls-2" d="M154.68,126.2H134.5a3,3,0,0,0,0,6h20.18a3,3,0,1,0,0-6Z"/><path class="cls-2" d="M70.14,117.09a3,3,0,0,0,3,3H93.32a3,3,0,0,0,0-6H73.14A3,3,0,0,0,70.14,117.09Z"/><path class="cls-2" d="M93.32,126.2H73.14a3,3,0,1,0,0,6H93.32a3,3,0,1,0,0-6Z"/></svg>